<svg xmlns="http://www.w3.org/2000/svg" viewBox="0 0 120 120" width="120" height="120">
  <defs>
    <linearGradient id="primaryGradient" x1="0%" y1="0%" x2="100%" y2="100%">
      <stop offset="0%" style="stop-color:#4f46e5;stop-opacity:1" />
      <stop offset="50%" style="stop-color:#7c3aed;stop-opacity:1" />
      <stop offset="100%" style="stop-color:#06b6d4;stop-opacity:1" />
    </linearGradient>
    <linearGradient id="accentGradient" x1="0%" y1="0%" x2="100%" y2="100%">
      <stop offset="0%" style="stop-color:#f59e0b;stop-opacity:1" />
      <stop offset="100%" style="stop-color:#ef4444;stop-opacity:1" />
    </linearGradient>
    <filter id="glow">
      <feGaussianBlur stdDeviation="2" result="coloredBlur"/>
      <feMerge> 
        <feMergeNode in="coloredBlur"/>
        <feMergeNode in="SourceGraphic"/>
      </feMerge>
    </filter>
  </defs>
  
  <!-- Main craft/tool symbol -->
  <g transform="translate(60, 60)">
    <!-- Outer hexagon frame -->
    <path d="M-30,0 L-15,-25.98 L15,-25.98 L30,0 L15,25.98 L-15,25.98 Z" 
          fill="none" 
          stroke="url(#primaryGradient)" 
          stroke-width="3" 
          filter="url(#glow)"/>
    
    <!-- Inner diamond representing AI core -->
    <path d="M0,-18 L13,0 L0,18 L-13,0 Z" 
          fill="url(#primaryGradient)" 
          opacity="0.8"/>
    
    <!-- Central AI node -->
    <circle cx="0" cy="0" r="6" fill="url(#accentGradient)"/>
    <circle cx="0" cy="0" r="3" fill="white"/>
    
    <!-- Connection nodes at hexagon vertices -->
    <circle cx="-22" cy="0" r="4" fill="url(#primaryGradient)"/>
    <circle cx="22" cy="0" r="4" fill="url(#primaryGradient)"/>
    <circle cx="-11" cy="-19" r="4" fill="url(#primaryGradient)"/>
    <circle cx="11" cy="-19" r="4" fill="url(#primaryGradient)"/>
    <circle cx="-11" cy="19" r="4" fill="url(#primaryGradient)"/>
    <circle cx="11" cy="19" r="4" fill="url(#primaryGradient)"/>
    
    <!-- Connecting lines -->
    <line x1="0" y1="0" x2="-22" y2="0" stroke="url(#primaryGradient)" stroke-width="1.5" opacity="0.6"/>
    <line x1="0" y1="0" x2="22" y2="0" stroke="url(#primaryGradient)" stroke-width="1.5" opacity="0.6"/>
    <line x1="0" y1="0" x2="-11" y2="-19" stroke="url(#primaryGradient)" stroke-width="1.5" opacity="0.6"/>
    <line x1="0" y1="0" x2="11" y2="-19" stroke="url(#primaryGradient)" stroke-width="1.5" opacity="0.6"/>
    <line x1="0" y1="0" x2="-11" y2="19" stroke="url(#primaryGradient)" stroke-width="1.5" opacity="0.6"/>
    <line x1="0" y1="0" x2="11" y2="19" stroke="url(#primaryGradient)" stroke-width="1.5" opacity="0.6"/>
  </g>
</svg>
